<svg width="30" height="30" viewBox="0 0 30 30" fill="none" xmlns="http://www.w3.org/2000/svg">
<circle cx="15" cy="15" r="14" fill="white"/>
<path fill-rule="evenodd" clip-rule="evenodd" d="M15 0C6.71591 0 0 6.71591 0 15C0 23.2841 6.71591 30 15 30C23.2841 30 30 23.2841 30 15C30 6.71591 23.2841 0 15 0ZM16.3636 8.18182C16.3636 7.82016 16.22 7.47331 15.9642 7.21758C15.7085 6.96185 15.3617 6.81818 15 6.81818C14.6383 6.81818 14.2915 6.96185 14.0358 7.21758C13.78 7.47331 13.6364 7.82016 13.6364 8.18182V16.3636C13.6364 16.7253 13.78 17.0721 14.0358 17.3279C14.2915 17.5836 14.6383 17.7273 15 17.7273C15.3617 17.7273 15.7085 17.5836 15.9642 17.3279C16.22 17.0721 16.3636 16.7253 16.3636 16.3636V8.18182ZM16.3636 21.1364C16.3636 20.7747 16.22 20.4279 15.9642 20.1721C15.7085 19.9164 15.3617 19.7727 15 19.7727C14.6383 19.7727 14.2915 19.9164 14.0358 20.1721C13.78 20.4279 13.6364 20.7747 13.6364 21.1364V21.8182C13.6364 22.1798 13.78 22.5267 14.0358 22.7824C14.2915 23.0382 14.6383 23.1818 15 23.1818C15.3617 23.1818 15.7085 23.0382 15.9642 22.7824C16.22 22.5267 16.3636 22.1798 16.3636 21.8182V21.1364Z" fill="#FFAB00"/>
</svg>
