<svg width="39" height="39" viewBox="0 0 39 39" fill="none" xmlns="http://www.w3.org/2000/svg">
<path d="M27.8513 0H11.1487C5.00149 0 0 5.0015 0 11.1487V27.8513C0 33.9985 5.00149 39 11.1487 39H27.8513C33.9985 39 39 33.9985 39 27.8513V11.1487C39 5.0015 33.9985 0 27.8513 0Z" fill="#3366CC"/>
<path d="M31.823 12.0904C31.381 12.5324 30.6599 12.5324 30.2121 12.0904L27.8451 9.72346C27.5775 9.45594 27.2402 9.24657 26.8622 9.1826C26.2632 9.07792 25.6816 9.26402 25.2687 9.67693L11.4681 23.4776C11.0552 23.8905 10.8691 24.472 10.9738 25.0711C11.0377 25.4491 11.2471 25.7864 11.5146 26.0539L14.4574 28.9966C15.1552 29.6945 16.2893 29.6945 16.9872 28.9966L26.8797 19.1042C27.217 18.7669 27.4031 18.3191 27.4031 17.8363C27.4031 17.3595 27.217 16.9117 26.8797 16.5685C26.4667 16.1556 25.8852 15.9695 25.2862 16.0742C24.9081 16.1382 24.5708 16.3475 24.3033 16.6151L16.3009 24.6174C15.8589 25.0594 15.1378 25.0594 14.69 24.6174C14.248 24.1754 14.248 23.4543 14.69 23.0065L22.7389 14.9576C23.5066 14.1899 24.5301 13.7654 25.6118 13.7654C26.6994 13.7654 27.7171 14.1899 28.4848 14.9576C29.2525 15.7253 29.677 16.7488 29.677 17.8305C29.677 18.9181 29.2525 19.9358 28.4848 20.7035L18.5923 30.596C17.8014 31.3869 16.7429 31.8114 15.6205 31.7882C14.533 31.7649 13.5094 31.2706 12.7417 30.5029L9.94438 27.7056C9.17671 26.9379 8.68237 25.9143 8.65911 24.8268C8.63585 23.7044 9.0604 22.6459 9.85133 21.855L23.652 8.05436C24.8384 6.86796 26.6296 6.50739 28.3278 7.25179C28.6767 7.403 28.9849 7.63563 29.2583 7.90897C29.8515 8.50217 31.0262 9.67694 31.823 10.4737C32.265 10.9273 32.265 11.6485 31.823 12.0904Z" fill="white"/>
</svg>
