<?xml version="1.0" encoding="utf-8"?>
<!-- Generator: Adobe Illustrator 23.1.1, SVG Export Plug-In . SVG Version: 6.00 Build 0)  -->
<svg version="1.1" id="Layer_1" xmlns="http://www.w3.org/2000/svg" xmlns:xlink="http://www.w3.org/1999/xlink" x="0px" y="0px"
	 viewBox="0 0 24 24" style="enable-background:new 0 0 24 24;" xml:space="preserve">
<style type="text/css">
	.st0{fill:#FFFFFF;}
</style>
<g>
	<g>
		<g>
			<g>
				<path class="st0" d="M12,20.8L12,20.8c-0.6,0-5.9-0.1-7.7-0.2c-0.1,0-0.2,0-0.3,0c-0.6-0.1-1.8-0.2-2.7-1.2
					c-0.8-0.8-1.1-2.4-1.1-2.7c0-0.1-0.2-1.9-0.2-3.8v-1.7c0-1.9,0.2-3.8,0.2-3.8c0-0.3,0.3-1.9,1.1-2.7c1-1,2.1-1.1,2.6-1.2l0.1,0
					c3.1-0.2,7.9-0.2,7.9-0.2s4.8,0,7.9,0.2l0.2,0c0.5,0.1,1.6,0.2,2.6,1.2c0.8,0.8,1.1,2.4,1.1,2.7c0,0.1,0.2,1.9,0.2,3.8v1.7
					c0,1.9-0.2,3.8-0.2,3.8c0,0.3-0.3,1.9-1.1,2.7c-1,1-2.1,1.1-2.6,1.2l-0.1,0C16.7,20.8,12,20.8,12,20.8z M12,4c0,0-4.7,0-7.8,0.2
					L4,4.3c-0.5,0-1.3,0.1-2.1,0.9C1.4,5.8,1.1,6.9,1,7.5c0,0-0.2,1.8-0.2,3.7v1.7c0,1.8,0.2,3.6,0.2,3.7c0.1,0.6,0.4,1.7,0.9,2.2
					c0.7,0.8,1.6,0.9,2.2,0.9c0.1,0,0.2,0,0.3,0C6.1,19.9,11.8,20,12,20l0,0.4V20c0,0,4.7,0,7.8-0.2l0.1,0c0.5,0,1.3-0.1,2.1-0.9
					c0.5-0.5,0.8-1.7,0.9-2.3c0,0,0.2-1.8,0.2-3.7v-1.7c0-1.8-0.2-3.6-0.2-3.7c-0.1-0.6-0.4-1.7-0.9-2.2c-0.8-0.8-1.6-0.9-2.1-0.9
					l-0.1,0C16.7,4,12,4,12,4z M8.9,16.3l0-9l8.6,4.5L8.9,16.3z M9.7,8.6l0,6.4l6-3.2L9.7,8.6z"/>
			</g>
		</g>
	</g>
</g>
</svg>
