<svg id="Layer_1" data-name="Layer 1" xmlns="http://www.w3.org/2000/svg" width="87" height="77" viewBox="0 0 87 77">
  <title>wall-icon</title>
  <g>
    <path id="Rectangle-29" d="M69.61,13.88V5H5v8.87ZM0,5A5,5,0,0,1,5,0H69.61a5,5,0,0,1,5,5v8.86a5,5,0,0,1-5,5H5a5,5,0,0,1-5-5Z" style="fill: #231f20"/>
    <path d="M56.21,36.25H5V27.37H56.45l0-.88,1.43.88H69.61s0,4.6,0,7.17l4.82,3a5,5,0,0,0,.18-1.26V27.38a5,5,0,0,0-5-5H5a5,5,0,0,0-5,5v8.86a5,5,0,0,0,5,5H56.08Z" style="fill: #231f20"/>
    <path id="Fill-1" d="M74.53,70,67.15,56.18a2.86,2.86,0,0,0-1.7-1.4,2.82,2.82,0,0,0-2.17.23l-4.34,2.39,0-23.06L78.05,46.88l-4.34,2.39a2.92,2.92,0,0,0-1.15,3.93L80,67Zm4.41-17L85,49.64a2.92,2.92,0,0,0,.19-5L57.68,26.6a2.82,2.82,0,0,0-2.91-.11A2.9,2.9,0,0,0,53.28,29l-.05,33.25a2.91,2.91,0,0,0,1.39,2.49,2.82,2.82,0,0,0,2.82.06l6.05-3.33L70.88,75.3a2.85,2.85,0,0,0,2.51,1.52,2.81,2.81,0,0,0,1.36-.35l10.44-5.75a2.92,2.92,0,0,0,1.15-3.93Z" style="fill: #221f20"/>
    <path d="M67.18,59.32H55.75l-.16.09v-.09H5V50.44H55.83l.13-5H5a5,5,0,0,0-5,5v8.86a5,5,0,0,0,5,5H69.61c.15,0,.29,0,.43,0Z" style="fill: #231f20"/>
  </g>
</svg>
